<svg width="800" height="800" viewBox="0 0 800 800" fill="none" xmlns="http://www.w3.org/2000/svg">
<path d="M320.488 398.355H123.769V327.045L231.964 173.768L424.585 119.671L622.123 222.128L677.86 398.355H502.452L391.798 327.045L320.488 398.355Z" fill="#DE3333" stroke="black"/>
<path d="M703.844 400.141C702.109 273.703 624.703 160.484 506.25 115.297C386.859 69.7969 246.078 107.813 165.344 206.453C85 304.688 72.8281 446.219 138.266 555.75C203.578 665.047 331.609 721.375 456.312 698.922C598.5 673.344 700.281 545.609 703.734 403.391C703.827 402.31 703.863 401.225 703.844 400.141ZM186.016 272.469C238.688 184.375 344.109 135.938 445.312 155.359C553.75 176.125 633.484 265.469 646.609 372.547H497.516C484.609 329.797 447.516 297.547 399.672 297.547C353.344 297.547 313.5 329.812 301.062 372.547H152.719C156.479 337.178 167.837 303.04 186.016 272.469ZM447.078 400.156C443.953 460.703 352.281 461.719 352.281 400.156C352.281 338.594 444.016 339.578 447.078 400.156ZM484.578 634.203C385.703 669.656 273.438 638.656 206.719 557.531C176.497 520.467 157.727 475.402 152.703 427.844H300.937C313.297 470.641 353.594 502.844 399.672 502.844C447.594 502.844 484.609 470.531 497.516 427.844H646.656C635.328 520.313 574.281 602.063 484.594 634.203H484.578Z" fill="black"/>
</svg>
